<svg width="53" height="40" viewBox="0 0 53 40" fill="none" xmlns="http://www.w3.org/2000/svg">
<path d="M19.3712 18.2251C20.2066 16.4893 21.0446 14.7543 21.8764 13.0167C22.7309 11.2305 23.5567 9.43038 24.4407 7.6598C24.894 6.75063 25.0815 5.82149 25.0277 4.81593C24.8671 1.84181 22.4009 -0.301298 19.4598 0.070359C16.9893 0.382968 15.2439 1.79665 14.1038 3.95018C13.3613 5.35171 12.7248 6.80881 12.0475 8.2442C11.4206 9.57366 10.7406 10.8788 10.1805 12.2395C10.1128 12.3663 10.0399 12.4913 9.97821 12.6207C8.35438 16.016 6.72361 19.4078 5.11281 22.8083C3.5654 26.0733 2.04143 29.3496 0.500963 32.6181C0.0824153 33.5064 -0.0582585 34.433 0.023367 35.4047C0.256955 38.1661 2.61715 40.1954 5.36984 39.9488C7.97404 39.7152 9.77415 38.2485 10.8691 35.9778C12.5763 32.4375 14.2497 28.879 15.9551 25.3378C17.0961 22.9681 18.2328 20.5966 19.3712 18.226V18.2251Z" fill="#FB923C"/>
<path d="M52.1074 32.0849C51.0845 30.0009 50.0963 27.8986 49.0934 25.805C48.7026 24.9896 48.3092 24.1751 47.9176 23.3606C47.2646 21.9807 46.6159 20.5983 45.9586 19.2202C44.0934 15.3135 42.2238 11.4094 40.3559 7.50436C39.8098 6.3616 39.2505 5.22405 38.7208 4.07348C38.0305 2.57469 36.9798 1.41283 35.5201 0.645205C33.4126 -0.463687 31.002 -0.118949 29.3374 1.49967C27.7656 3.02711 27.3784 5.35517 28.3509 7.37845C30.9126 12.711 33.4673 18.0462 36.0307 23.3771C36.8634 25.1086 37.7135 26.8314 38.5558 28.5585C38.5654 28.6002 38.5671 28.6462 38.5854 28.6845C39.788 31.2313 40.9595 33.7939 42.2073 36.3182C42.9853 37.8925 44.2401 39.0153 45.9056 39.6214C48.7078 40.6417 51.6264 39.3184 52.5103 36.6282C53.0244 35.0634 52.8308 33.5568 52.1083 32.0849H52.1074Z" fill="#FB923C"/>
<path d="M26.5918 11.7072C26.5466 11.6152 26.5397 11.4719 26.3538 11.4745C25.5784 13.0618 24.7908 14.6535 24.0214 16.2531C23.1644 18.0358 22.3238 19.8263 21.4754 21.6134C21.4459 21.6629 21.4111 21.7098 21.3868 21.7619C19.6692 25.3882 17.9473 29.0118 16.2375 32.6424C15.8571 33.4509 15.6835 34.3114 15.7052 35.211C15.7755 38.1435 18.3024 40.3369 21.1975 39.9575C23.4414 39.664 25.014 38.3831 26.1776 36.5179C26.4989 36.003 26.709 35.4333 26.966 34.8871C27.5747 33.5924 28.173 32.2934 28.7748 30.996C29.9957 28.5837 31.0169 26.0777 32.21 23.6523C32.3003 23.4682 32.2448 23.3276 32.1666 23.1661C30.3075 19.347 28.4518 15.5262 26.5926 11.7081L26.5918 11.7072Z" fill="#FB923C"/>
</svg>
